<svg width="410" height="404" viewBox="0 0 410 404" fill="none" xmlns="http://www.w3.org/2000/svg">
  <path d="M204.5 202C204.5 226.853 184.853 246.5 160 246.5C135.147 246.5 115.5 226.853 115.5 202C115.5 177.147 135.147 157.5 160 157.5C184.853 157.5 204.5 177.147 204.5 202Z" fill="#24292F"/>
  <path fill-rule="evenodd" clip-rule="evenodd" d="M160 0C71.6 0 0 71.6 0 160C0 230.8 45.8 290.6 109.4 312C117.4 313.6 120.2 308.8 120.2 304.6C120.2 300.8 120 288.4 120 275C75.6 284.6 66 254.8 66 254.8C58.8 236.2 48.2 231.4 48.2 231.4C33.8 221.6 49.4 221.8 49.4 221.8C65.4 223 73.8 238.2 73.8 238.2C88 262.4 111 255.2 120.6 251C122 240.8 126.2 233.6 130.8 229.8C95.2 226 57.8 212.2 57.8 151C57.8 133.6 64 119.4 74 108.6C72.4 104.6 66.8 88.2 75.6 66.2C75.6 66.2 89 62 120 82.6C132.6 79 146.2 77.2 160 77.2C173.8 77.2 187.4 79 200 82.6C230.8 62 244.2 66.2 244.2 66.2C253 88.2 247.4 104.6 245.8 108.6C255.8 119.4 262 133.6 262 151C262 212.4 224.4 226 188.8 229.8C194.6 234.6 200 244 200 258.4C200 279 200 299.2 200 304.6C200 308.8 202.6 313.6 210.8 312C274.2 290.6 320 230.8 320 160C320 71.6 248.4 0 160 0Z" fill="#24292F"/>
</svg> 